<svg xmlns="http://www.w3.org/2000/svg" version="1.1" width="600px" height="600px" xlink="http://www.w3.org/1999/xlink" style="overflow:hidden!important;"><g id="svga-group-wrapper" transform="scale(3 3)"><g id="svga-group-backs-single"><path id="SvgjsPath3226" d="M225,225H-25V-25h250V225z" fill="#ecf0f1" stroke-width="none" opacity="1"></path><path id="SvgjsPath3227" d="M55.036,79.068h-29v-26h29V79.068z M84.203,33H43.536v33.068h40.667V33z M63.869,99.999H100V56.401H63.869V99.999z M76.869,95.734H40.536v31.333h36.333V95.734z M175.536,13.401H126v56.667h49.536V13.401z M119.536,39.068h-12v14h12V39.068z M155.818-4.266h-48.282v28.667h48.282V-4.266z M100,5.734H74v36h26V5.734z M40.536,8.401h-14.5v15.333h14.5V8.401z M21.171,33H-1.246v34.434h22.417V33z M47.536,99.999H8.203v43.735h39.333V99.999z M26.036,173.734h44.167v-26H26.036V173.734z M131.536,163.734H100.5v22.667h31.037V163.734z M206.792,141.067h-28.718v34h28.718V141.067z M159.536,156.491h-24.667v22.667h24.667V156.491z M183.178,111.733h-35.975v40.668h35.975V111.733z M192.202,181.734h-44.999v29.333h44.999V181.734z M43.536,163.734H-5.262v44h48.797V163.734z M202.869,53.068h-33.166v26h33.166V53.068z M183.178,90.401h-14.359v14.835h14.359V90.401z M-5.262,118h27.339V79.299H-5.262V118z M33.493-5.599l-49.291,1.333V33h49.291V-5.599z M211.536-4.266h-32v40.667h32V-4.266z M61-8.266H47.536v29.333H61V-8.266z M208.869,97.818h-32.871v26.667h32.871V97.818z" fill="#c6dce2" stroke="#f9f9f9" stroke-width="0.5" opacity="1"></path></g><g id="svga-group-subwrapper" ><g id="svga-group-hair-back" ><path id="SvgjsPath5074" d="M160.527 108.896c-0.826 32.13-5.272 102.953-58.469 102.589 -80.381-0.551-60.969-69.5-61.767-102.589 -1.15-47.67 26.917-86.339 60.118-86.339C133.611 22.558 161.753 61.229 160.527 108.896z" fill="#371813" stroke-width="none" opacity="1"></path></g><g id="svga-group-humanbody-single"><path id="SvgjsPath2761" d="M190.858 199.866c-6.008-10.158-13.474-11.973-19.628-13.936 -6.323-2.016-19.346-3.178-26.449-4.6 -6.86-1.373-23.153-5.789-23.339-13.488 -0.192-8.066 4.291-40.09 4.291-40.09H74.005c0 0 4.487 32.023 4.294 40.09 -0.184 7.699-16.48 12.115-23.341 13.488 -7.104 1.422-20.125 2.584-26.448 4.6 -6.156 1.963-13.624 3.777-19.632 13.936 -3.644 6.16-6.008 16.133-6.008 27.133h194C196.869 215.999 194.509 206.026 190.858 199.866z" fill="#ffd0bc" stroke-width="none" opacity="1" stroke="none"></path><path id="SvgjsPath2762" d="M121.442 167.843c2.495 10.929 18.165 13.698 26.293 15.325 21.909 4.379 33.772 5.134 42.297 19.539 2.903 4.916 5.459 15.864 5.962 24.153 1.835 0.291 0.531-17.432-5.136-26.994 -9.742-16.472-29.089-15.135-46.077-18.535C137.921 179.958 121.628 175.542 121.442 167.843L121.442 167.843zM78.558 167.843c-0.186 7.699-16.479 12.115-23.339 13.488 -16.988 3.4-36.335 2.063-46.077 18.535 -5.667 9.563-6.971 27.285-5.136 26.994 0.503-8.289 3.059-19.237 5.962-24.153 8.524-14.405 20.388-15.16 42.297-19.539C60.393 181.541 76.063 178.771 78.558 167.843L78.558 167.843z" fill="#ffe2d6" stroke-width="none" opacity="1" stroke="none"></path><path id="SvgjsPath2763" d="M51.206 189.513c0 0 28.641 0.299 33.473 1.885 2.314 0.758 8.372 5.633 8.372 5.633s-6.556-3.17-8.658-3.758C79.51 191.909 51.206 189.513 51.206 189.513zM99.795 199.999c2.053-0.041 7.887-3.799 7.887-3.799s-5.574 2.059-7.342 2.16c-1.491 0.086-6.366-1.238-6.366-1.238S98.112 200.032 99.795 199.999zM117.008 192.757c6.75-1.818 29.786-3.23 29.786-3.23s-23.791-0.516-30.51 1.725c-2.252 0.752-7.562 5.16-7.562 5.16S114.786 193.354 117.008 192.757z" fill="#f0b399" stroke-width="none" opacity="1" stroke="none"></path><path id="SvgjsPath2764" d="M190.858 199.866c-9.741-16.471-29.122-15.142-46.077-18.535 -6.86-1.373-23.153-5.789-23.339-13.488 -0.192-8.066 4.291-40.09 4.291-40.09H74.005c0 0 4.487 32.023 4.294 40.09 -0.184 7.699-16.48 12.115-23.341 13.488 -7.104 1.422-20.125 2.584-26.448 4.6 -6.156 1.963-13.624 3.777-19.632 13.936 -3.644 6.16-6.008 16.133-6.008 27.133h194C196.869 215.999 194.509 206.026 190.858 199.866z" fill="none" stroke="#d17f5b" stroke-width="1.5" opacity="1"></path></g><g id="svga-group-chinshadow-single"><path id="SvgjsPath5094" d="M100.045 171.737c5.593-0.009 13.488-3.608 20.908-8.44 0.448-6.688 1.717-17.243 2.734-25.146 -13.955-1.813-33.739-1.771-47.623 0.105 1.008 7.831 2.258 18.226 2.713 24.89C86.31 168.063 94.37 171.746 100.045 171.737z" fill="url(#SvgjsLinearGradient5095)" opacity="1"></path></g><g id="svga-group-clothes-single" ><path id="SvgjsPath5108" d="M36.917 226.987c-12.142-0.106-34.504-0.481-34.504-0.481 -1.001-13.221 2.596-27.552 13.625-35.288 12.837-8.999 26.79-7.649 37.699-10.586 1 0.851 7.132 5.092 15.783 8.984 17.875 8.037 35.664 11.938 66.937 18.887 7.121-21.609 8.549-27.237 8.753-28.237 0.012 0.039 1.217-0.015 1.259-0.015 0.868 0 1.157 0.083 1.898 0.661 1.372-0.662 2.97-0.267 3.693 0.703 -3.046 12.205 4.021 43.22 4.021 45.2C138.413 226.815 120.95 227.716 36.917 226.987z" fill="#ce005b" stroke-width="none" opacity="1" stroke="none"></path><path id="SvgjsPath5109" d="M2.319 226.605c-0.842-13.045 3.389-27.448 14.244-35.063 12.837-8.999 26.263-7.477 37.172-10.413 0.146 0.124 1.683 0.998 2.04 1.256C17.586 186.399 4.214 199.521 2.319 226.605zM152.059 181.615c-0.144-0.192-0.329-0.354-0.532-0.498 -0.395-0.277-0.88-0.454-1.405-0.507 -0.572-0.058-1.183 0.025-1.756 0.302 -0.372-0.29-0.631-0.455-0.905-0.548 -0.272-0.092-0.562-0.113-0.993-0.113 -0.002 0-0.016 0-0.021 0.001 -0.123 0.004-1.227 0.051-1.238 0.014 -0.057 0.275 0.368-0.521 0.033 0.692 0.512 2.387-0.894 6.45-3.241 22.042 4.722-16.694 5.029-20.603 6.493-21.467 1.563 1.452-0.73 13.11 1.507 26.467 -0.506-8.89-0.193-24.89 1.863-25.892C151.976 181.263 151.878 182.339 152.059 181.615zM47.247 183.5c9.949 11.154 13.767 13.82 35.127 21.874C60.79 195.24 60.259 195.633 47.247 183.5zM52.952 182.397c14.55 15.296 34.438 21.115 65.001 29.648C84.391 201.231 67.467 196.433 52.952 182.397z" fill="#dd166e" stroke-width="none" opacity="1" stroke="none"></path><path id="SvgjsPath5110" d="M148.378 180.795c-0.229-0.18-0.719-0.509-1.068-0.579 -0.62-0.14-2.07-0.019-2.2 0.031 -1.778 9.483-5.687 19.042-8.721 28.139 -27.713-6.149-62.451-12.981-82.68-27.851 -15.189 4.111-53.002-0.132-51.41 45.681 0 0.13 0.01 0.26 0.02 0.39 0 0 56.588 0.76 56.59 0.76 27.246 0.539 96.468-0.45 97.47-0.45 0-9.142-6.396-31.019-4.24-45.359C151.432 180.605 149.782 180.116 148.378 180.795zM155.811 226.476c-54.167-1.382-122.589-1.144-153.231-0.271 0.987-44.587 35.332-39.994 51.72-44.38 20.665 15.798 56.059 22.312 82 26.87 -1.166 3.355-2.854 8.168-4.6 11.87 4.504-7.593 12.158-29.512 13.76-39.7 1.52-0.324 2.495 0.128 2.74 0.49 -1.521 7.91-2.222 15.998-3.53 24.079 2.125-10.09 2.051-11.999 4.3-24.339 0.561-0.08 1.141-0.051 1.721 0.109 0.46 0.2 0.62 0.48 0.91 0.811C149.588 191.271 152.864 208.45 155.811 226.476z" fill="#a00047" stroke-width="none" opacity="1" stroke="none"></path></g><g id="svga-group-head" ><g id="svga-group-ears-left" style="display:none;"><path id="SvgjsPath2774" d="M47.001 83.974c-1.376-2.313-5.638-7.997-9.98-6.603 -2.749 0.882-3.293 3.765-3.735 6.311 -0.588 3.386 0.471 10.083 1.389 12.503 0.881 2.325 3.533 6.816 5.264 8.527 2.13 2.1 4.775 8.793 5.194 9.487 0.66 1.097 1.536 2.745 4.122 2.538 2.853-0.229 4.584-1.742 5.856-1.999C58.253 114.109 50.582 89.995 47.001 83.974z" fill="#ffd0bc" stroke="#d17f5b" stroke-width="1.5" opacity="1"></path><path id="SvgjsPath2775" d="M44.197 97.997c-0.132-0.548 0.007-1.47 0.142-2.362 0.124-0.812 0.24-1.579 0.169-2.121 -0.267-2.032-1.773-5.893-2.757-7.985 -1.132-2.407-2.963-5.439-5.262-6.221 -0.95-0.324-1.575 0.063-1.938 0.456 -0.266 0.289-0.325 0.627-0.238 0.667 0.086 0.04 0.285-0.24 0.572-0.504 0.235-0.216 0.579-0.402 1.051-0.363 -0.19 1.011-1.167 6.49-0.744 10.225 0.333 2.938 1.593 5.131 1.79 5.46 0.029 0.346 0.077 0.685 0.148 1.014 0.929 4.287 4.971 9.163 6.378 10.758 0.259 0.295 0.531 0.47 0.598 0.398 0.066-0.072-0.094-0.364-0.353-0.66 -1.388-1.585-5.391-6.442-6.289-10.579 -0.952-4.389 2.318-10.896 3.048-12.272 0.371 0.646 0.687 1.267 0.93 1.785 0.19 0.406 0.402 0.881 0.619 1.395 -0.429 0.718-3.434 5.958-2.338 10.153 0.406 1.546 2.235 3.54 3.447 4.086 0.667 0.301 0.919 0.75 1.209 1.271 0.336 0.604 0.718 1.288 1.828 1.784 0.225 0.102 0.429 0.142 0.61 0.142 0.313 0 0.551-0.126 0.725-0.276 0.018 0.266 0.017 0.604 0.009 0.917 -0.012 0.404 0.042 0.737 0.137 0.745 0.094 0.008 0.196-0.313 0.207-0.717 0.016-0.496 0.013-1.11-0.072-1.403 -0.248-0.865-1.008-1.841-1.813-2.875C45.221 99.896 44.403 98.844 44.197 97.997zM36.95 94.196c-2.177-6.731 0.656-12.54 1.144-13.464 0.85 0.775 1.6 1.811 2.21 2.824C39.86 84.365 37.041 89.669 36.95 94.196zM46.341 104.042c-1.004-0.447-1.339-1.051-1.666-1.633 -0.293-0.527-0.598-1.072-1.369-1.42 -0.168-0.075-0.352-0.191-0.542-0.323 -2.486-5.906 0.272-8.488 0.963-9.017 0.211 0.722 0.369 1.384 0.439 1.915 0.063 0.488-0.052 1.263-0.167 2.012 -0.142 0.929-0.286 1.89-0.137 2.512 0.226 0.926 1.069 2.009 1.884 3.057 0.723 0.929 1.466 1.888 1.721 2.67C47.359 103.972 47.017 104.345 46.341 104.042z" fill="#d17f5b" stroke-width="none" opacity="1" stroke="none"></path></g><g id="svga-group-ears-right" style="display:none;"><path id="SvgjsPath2776" d="M152.736 83.974c1.377-2.313 5.639-7.997 9.98-6.603 2.75 0.882 3.293 3.765 3.736 6.311 0.588 3.386-0.471 10.083-1.389 12.503 -0.881 2.325-3.533 6.816-5.266 8.527 -2.129 2.1-4.775 8.793-5.193 9.487 -0.658 1.097-1.535 2.745-4.121 2.538 -2.854-0.229-4.584-1.742-5.857-1.999C141.484 114.109 149.156 89.995 152.736 83.974z" fill="#ffd0bc" stroke="#d17f5b" stroke-width="1.5" opacity="1"></path><path id="SvgjsPath2777" d="M153.727 100.913c-0.805 1.033-1.564 2.009-1.813 2.875 -0.086 0.293-0.088 0.907-0.072 1.403 0.012 0.404 0.113 0.725 0.207 0.717s0.148-0.341 0.137-0.745c-0.008-0.313-0.008-0.651 0.01-0.917 0.174 0.15 0.412 0.276 0.725 0.276 0.182 0 0.385-0.04 0.609-0.142 1.109-0.496 1.492-1.18 1.828-1.784 0.289-0.52 0.543-0.969 1.209-1.271 1.213-0.546 3.041-2.54 3.447-4.086 1.096-4.194-1.908-9.435-2.338-10.153 0.217-0.513 0.43-0.988 0.619-1.395 0.244-0.518 0.559-1.139 0.93-1.785 0.73 1.377 4 7.883 3.049 12.272 -0.896 4.137-4.9 8.994-6.289 10.579 -0.258 0.296-0.418 0.588-0.352 0.66 0.066 0.071 0.338-0.104 0.598-0.398 1.406-1.596 5.449-6.471 6.379-10.758 0.07-0.329 0.117-0.668 0.146-1.014 0.197-0.329 1.459-2.523 1.791-5.46 0.422-3.735-0.555-9.214-0.744-10.225 0.473-0.039 0.814 0.146 1.051 0.363 0.287 0.264 0.486 0.544 0.572 0.504s0.027-0.378-0.238-0.667c-0.363-0.393-0.988-0.779-1.938-0.456 -2.299 0.782-4.131 3.814-5.262 6.221 -0.984 2.093-2.49 5.953-2.758 7.985 -0.072 0.542 0.045 1.309 0.17 2.121 0.135 0.892 0.273 1.814 0.141 2.362C155.336 98.844 154.518 99.896 153.727 100.913zM159.434 83.555c0.611-1.013 1.361-2.049 2.211-2.824 0.488 0.925 3.32 6.733 1.145 13.464C162.697 89.669 159.879 84.365 159.434 83.555zM152.27 103.816c0.254-0.782 0.998-1.741 1.721-2.67 0.816-1.048 1.658-2.131 1.885-3.057 0.148-0.622 0.004-1.583-0.137-2.512 -0.115-0.749-0.23-1.524-0.166-2.012 0.068-0.531 0.227-1.193 0.438-1.915 0.691 0.529 3.449 3.111 0.965 9.017 -0.191 0.132-0.375 0.248-0.543 0.323 -0.771 0.348-1.074 0.893-1.369 1.42 -0.326 0.582-0.662 1.186-1.666 1.633C152.721 104.345 152.379 103.972 152.27 103.816z" fill="#d17f5b" stroke-width="none" opacity="1" stroke="none"></path></g><g id="svga-group-faceshape-wrap" ><g id="svga-group-faceshape-single" ><path id="SvgjsPath5091" d="M158.918 76.762l-0.005 0c-0.012 0.053-9.983 40.707-18.186 53.285 -6.452 9.894-28.899 29.205-40.573 29.223 -11.671 0.02-34.17-19.225-40.652-29.1C51.261 117.618 41.15 77 41.138 76.946h-0.001c-1.298-4.911-1.994-10.066-2.002-15.382C39.082 28.09 66.289 0.919 99.907 0.867c33.621-0.052 60.913 27.033 60.963 60.507C160.879 66.69 160.201 71.846 158.918 76.762z" fill="#ffd0bc" stroke-width="none" opacity="1" stroke="none"></path><path id="SvgjsPath5092" d="M125.898 6.622c19.104 10.248 32.075 30.355 32.039 53.476 -0.009 5.316-0.704 10.471-2.003 15.382h-0.001c-0.012 0.053-10.123 40.672-18.365 53.224 -5.946 9.061-25.288 28.788-37.566 28.788 -12.279 0-31.619-19.728-37.566-28.788 -8.241-12.552-18.353-53.17-18.364-53.224H44.07c-1.298-4.911-1.994-10.066-2.002-15.382C42.031 36.977 55.003 16.87 74.105 6.622 53.411 16.324 39.096 37.28 39.134 61.564c0.008 5.316 0.704 10.471 2.002 15.382h0.001C41.15 77 51.261 117.618 59.503 130.17c4.416 6.728 16.656 19.762 27.233 25.049 -0.529-0.226-1.062-0.466-1.599-0.717 5.408 2.875 10.664 4.763 14.713 4.768 0.049 0 0.103-0.005 0.152-0.005s0.103 0.005 0.152 0.005c4.048-0.005 9.304-1.893 14.713-4.768 -0.538 0.253-1.071 0.491-1.601 0.718 10.577-5.287 22.818-18.322 27.234-25.05 8.242-12.552 18.354-53.17 18.364-53.224h0.002c1.298-4.911 1.994-10.066 2.002-15.382C160.908 37.28 146.595 16.324 125.898 6.622z" fill="#f7c1aa" stroke-width="none" opacity="1" stroke="none"></path><path id="SvgjsPath5093" d="M158.918 76.762l-0.005 0c-0.012 0.053-9.983 40.707-18.186 53.285 -6.452 9.894-28.899 29.205-40.573 29.223 -11.671 0.02-34.17-19.225-40.652-29.1C51.261 117.618 41.15 77 41.138 76.946h-0.001c-1.298-4.911-1.994-10.066-2.002-15.382C39.082 28.09 66.289 0.919 99.907 0.867c33.621-0.052 60.913 27.033 60.963 60.507C160.879 66.69 160.201 71.846 158.918 76.762z" fill="none" stroke="#d17f5b" stroke-width="1.5" opacity="1"></path></g></g><g id="svga-group-mouth-single" ><path id="SvgjsPath5083" d="M100.091 139.322c-4.952 0-6.142-3.033-6.142-3.033 6.246 2.316 11.836-0.124 11.836-0.124S104.446 139.322 100.091 139.322z" fill="url(#SvgjsLinearGradient5084)" opacity="1"></path><path id="SvgjsPath5087" d="M85.595 129.671c2.677-0.132 7.545-1.077 10.096-0.988 1.319 0.046 2.63 0.953 4.007 1.242 0.958 0.202 3.935-1.1 4.915-1.162 2.572-0.162 7.409 0.744 9.771 0.92 0.13 0.011 0 0 0 0s-5.776 7.727-14.463 7.725C90.09 137.406 85.595 129.671 85.595 129.671S85.463 129.678 85.595 129.671z" fill="#f771a9" stroke="#e85391" stroke-width="0.75" opacity="1"></path><path id="SvgjsPath5088" d="M114.739 129.405c-0.045-0.131-0.461-0.189-0.624-0.139 -0.3 0.094-0.663 0.521-1.313 0.686 -0.748 0.191-5.021 1.431-6.193 1.49 -2.365 0.118-4.438 0.943-6.76 0.938 -2.323-0.005-4.34-0.929-6.716-1.058 -1.18-0.065-5.194-1.216-5.947-1.4 -0.65-0.16-0.89-0.574-1.162-0.686 -0.189-0.077-0.652-0.02-0.743 0.105 -0.079 0.107 0.088 0.609 0.2 0.75 0.271 0.336 1.103 0.506 1.667 0.647 0.779 0.199 4.759 1.366 5.949 1.433 2.305 0.13 4.308 1.125 6.612 1.127 2.306 0.003 4.405-0.904 6.729-1.022 1.195-0.062 5.53-1.313 6.332-1.513 0.58-0.146 1.388-0.399 1.672-0.68C114.58 129.95 114.785 129.538 114.739 129.405z" fill="#c92066" stroke-width="none" opacity="1" stroke="none"></path><path id="SvgjsPath5089" d="M99.799 136.138c-3.914 0-7.707-1.246-10.289-3.693 1.36 0.19 2.83 0.207 4.269 0.403 1.773 0.242 3.429 0.921 5.248 1.034 1.968 0.125 3.916-0.495 5.886-0.841 1.644-0.289 4.21-1.067 5.742-1.302C107.729 133.982 103.577 136.138 99.799 136.138zM105.256 131.043c1.49-0.149 3.855-0.879 5.226-1.04 -1.406-0.413-3.829-0.279-5.576-0.441 -1.506-0.139-3.244 0.861-4.817 1.016 -1.774 0.175-2.94-1.233-4.607-1.369 -1.809-0.147-3.787 0.559-5.336 0.915 1.387 0.188 2.877 0.239 4.309 0.517 1.753 0.341 3.405 0.992 5.223 1.054C101.537 131.757 103.419 131.226 105.256 131.043z" fill="#ff8ebd" stroke-width="none" opacity="1" stroke="none"></path><path id="SvgjsPath5090" d="M105.695 133.406c-0.308 0.01-0.625 0.025-0.93 0.051 -0.351 0.028-0.668 0.069-0.961 0.123 -0.538 0.099-1.074 0.233-1.638 0.369 -0.888 0.216-1.726 0.392-2.662 0.391 -0.15 0-0.301-0.007-0.452-0.017 -0.764-0.055-1.521-0.217-2.191-0.412 -0.693-0.204-1.353-0.401-2.019-0.492 -0.128-0.017-0.259-0.029-0.387-0.042 -0.409-0.036-0.836-0.052-1.255-0.063 1.734 1.396 4.128 2.038 6.468 2.041C102.079 135.356 103.946 134.512 105.695 133.406z" fill="#ffa8cc" stroke-width="none" opacity="1" stroke="none"></path></g><g id="svga-group-eyes-left" ><g id="svga-group-eyesback-left"><path id="SvgjsPath4818" d="M61.952 84.523c-0.506-2.285 5.191-3.973 12.711-3.051 7.518 0.923 12.738 5.524 12.052 7.844 -0.38 1.286-10.639 3.245-14.253 2.847C68.798 91.758 63.174 90.04 61.952 84.523z" fill="url(#SvgjsRadialGradient4819)" opacity="1"></path></g><g id="svga-group-eyesiriswrapper-left" transform="translate(-0.75 -0.5)"><g id="svga-group-eyesiriscontrol-left" ><g id="svga-group-eyesiris-left" ><path id="SvgjsPath4872" d="M83.5 87c0 4.694-3.806 8.5-8.499 8.5 -4.694 0-8.501-3.806-8.501-8.5l0 0c0-4.694 3.807-8.5 8.501-8.5C79.694 78.499 83.5 82.305 83.5 87L83.5 87z" fill="#7b5c33" stroke-width="none" opacity="1"></path><path id="SvgjsPath4873" d="M74.048 78.595c-0.033 0.004-0.066 0.008-0.101 0.012 0.041 0.191 0.081 0.384 0.12 0.575C74.06 78.987 74.055 78.789 74.048 78.595zM74.066 79.18c0.099 2.793 0.262 5.282 0.732 6.183C75.047 84.377 74.625 81.92 74.066 79.18zM74.8 85.365c-0.061 0.236-0.153 0.397-0.294 0.452 -0.142 0.053-0.319-0.008-0.521-0.146 0.058 0.236 0.052 0.422-0.051 0.537 -0.102 0.114-0.285 0.142-0.527 0.11 0.16 0.184 0.242 0.353 0.206 0.5 -0.039 0.148-0.189 0.258-0.415 0.343 0.225 0.088 0.376 0.199 0.411 0.347 0.036 0.148-0.046 0.315-0.205 0.498 0.241-0.029 0.426 0.001 0.525 0.115 0.101 0.114 0.106 0.301 0.05 0.537 0.199-0.137 0.376-0.197 0.518-0.142 0.143 0.053 0.234 0.216 0.291 0.454 0.114-0.215 0.243-0.353 0.396-0.368 0.148-0.02 0.307 0.084 0.466 0.267 0.002-0.244 0.053-0.423 0.181-0.51 0.124-0.086 0.311-0.069 0.537 0.018 -0.11-0.216-0.148-0.398-0.078-0.534 0.071-0.135 0.245-0.207 0.487-0.235 -0.199-0.14-0.321-0.283-0.318-0.436 -0.001-0.153 0.119-0.296 0.321-0.434 -0.241-0.03-0.412-0.103-0.484-0.237 -0.07-0.135-0.031-0.319 0.081-0.535 -0.229 0.085-0.413 0.102-0.538 0.016 -0.126-0.086-0.177-0.267-0.178-0.51 -0.158 0.182-0.316 0.282-0.468 0.262C75.041 85.714 74.911 85.58 74.8 85.365zM75.66 85.471c0.679-0.758 1.446-3.13 2.224-5.813C76.674 82.174 75.662 84.453 75.66 85.471zM77.883 79.657c0.085-0.172 0.172-0.348 0.253-0.524 -0.03-0.011-0.06-0.024-0.09-0.037C77.992 79.284 77.938 79.472 77.883 79.657zM76.377 85.965c0.953-0.357 2.736-2.101 4.671-4.115C78.808 83.517 76.851 85.065 76.377 85.965zM81.048 81.851c0.142-0.106 0.287-0.213 0.433-0.318 -0.021-0.025-0.043-0.047-0.06-0.07C81.297 81.59 81.174 81.722 81.048 81.851zM76.777 86.738c1.01 0.125 3.399-0.591 6.052-1.475C80.068 85.698 77.617 86.159 76.777 86.738zM82.829 85.263c0.156-0.022 0.318-0.048 0.478-0.073 -0.007-0.026-0.013-0.054-0.02-0.081C83.135 85.16 82.979 85.212 82.829 85.263zM76.775 87.606c0.836 0.583 3.284 1.057 6.038 1.505C80.171 88.214 77.786 87.484 76.775 87.606zM82.813 89.111c0.135 0.047 0.271 0.095 0.404 0.138 0.007-0.024 0.013-0.047 0.018-0.071C83.098 89.158 82.954 89.135 82.813 89.111zM76.367 88.375c0.471 0.902 2.42 2.462 4.649 4.142C79.092 90.492 77.32 88.737 76.367 88.375zM81.018 92.514c0.083 0.087 0.17 0.179 0.253 0.268 0.014-0.017 0.027-0.031 0.043-0.046C81.215 92.662 81.113 92.587 81.018 92.514zM75.652 88.867c-0.004 1.019 0.995 3.302 2.191 5.827C77.079 92.006 76.327 89.628 75.652 88.867zM77.844 94.694c0.03 0.106 0.062 0.215 0.09 0.324 0.021-0.008 0.036-0.015 0.055-0.02C77.941 94.896 77.892 94.793 77.844 94.694zM74.788 88.968c-0.476 0.902-0.653 3.386-0.768 6.178C74.594 92.413 75.031 89.958 74.788 88.968zM74.021 95.146c-0.023 0.106-0.044 0.214-0.066 0.323 0.02 0.004 0.035 0.005 0.055 0.007C74.013 95.368 74.018 95.254 74.021 95.146zM73.979 88.657c-0.844 0.576-2.154 2.697-3.553 5.114C72.204 91.617 73.733 89.645 73.979 88.657zM70.427 93.771c-0.074 0.09-0.152 0.185-0.229 0.274 0.018 0.012 0.034 0.02 0.053 0.034C70.309 93.976 70.369 93.873 70.427 93.771zM73.405 88.006c-1.015 0.119-3.16 1.385-5.522 2.875C70.46 89.801 72.726 88.768 73.405 88.006zM67.883 90.884c-0.122 0.051-0.247 0.102-0.372 0.156 0.009 0.019 0.021 0.038 0.033 0.057C67.658 91.027 67.771 90.954 67.883 90.884zM73.198 87.161c-0.951-0.365-3.441-0.238-6.227-0.016C69.755 87.383 72.244 87.521 73.198 87.161zM66.972 87.145c-0.151-0.014-0.308-0.028-0.457-0.041 -0.001 0.027-0.003 0.053-0.001 0.08C66.669 87.169 66.822 87.156 66.972 87.145zM73.407 86.318c-0.67-0.763-2.932-1.809-5.499-2.905C70.259 84.915 72.397 86.196 73.407 86.318zM67.908 83.413c-0.147-0.095-0.297-0.189-0.446-0.285 -0.013 0.026-0.026 0.053-0.041 0.078C67.585 83.276 67.75 83.344 67.908 83.413zM73.985 85.67c-0.239-0.989-1.758-2.967-3.521-5.132C71.849 82.963 73.147 85.09 73.985 85.67zM70.465 80.538c-0.095-0.163-0.188-0.329-0.281-0.494 -0.026 0.018-0.055 0.037-0.079 0.054C70.224 80.245 70.348 80.393 70.465 80.538z" fill="url(#SvgjsRadialGradient4874)" opacity="1"></path><path id="SvgjsPath4877" d="M76.255 78.622c-0.034-0.004-0.066-0.01-0.1-0.014 -0.011 0.196-0.022 0.393-0.034 0.586C76.164 79.004 76.211 78.812 76.255 78.622zM76.12 79.193c-0.627 2.724-1.114 5.17-0.892 6.162C75.724 84.467 75.95 81.984 76.12 79.193zM75.229 85.356c-0.119 0.212-0.25 0.344-0.401 0.36 -0.15 0.014-0.306-0.091-0.464-0.276 -0.006 0.243-0.06 0.421-0.188 0.505 -0.128 0.083-0.313 0.063-0.539-0.03 0.107 0.219 0.143 0.403 0.069 0.536 -0.075 0.133-0.249 0.201-0.489 0.224 0.194 0.144 0.312 0.289 0.308 0.441 -0.003 0.152-0.126 0.292-0.327 0.428 0.24 0.034 0.41 0.111 0.478 0.247 0.067 0.136 0.025 0.318-0.091 0.532 0.229-0.081 0.414-0.093 0.537-0.003 0.123 0.088 0.17 0.27 0.164 0.514 0.166-0.177 0.325-0.278 0.478-0.253 0.148 0.02 0.274 0.16 0.382 0.379 0.064-0.236 0.16-0.396 0.306-0.447 0.143-0.051 0.318 0.014 0.515 0.157 -0.051-0.237-0.041-0.423 0.063-0.536s0.29-0.136 0.532-0.102c-0.157-0.187-0.238-0.356-0.195-0.504 0.039-0.148 0.192-0.255 0.423-0.336 -0.226-0.091-0.372-0.206-0.407-0.354 -0.032-0.149 0.053-0.316 0.218-0.495 -0.243 0.023-0.427-0.009-0.524-0.125 -0.099-0.115-0.102-0.303-0.039-0.538 -0.201 0.134-0.38 0.19-0.521 0.132C75.37 85.756 75.281 85.593 75.229 85.356zM76.033 85.683c0.852-0.558 2.206-2.65 3.652-5.04C77.865 82.76 76.298 84.699 76.033 85.683zM79.685 80.641c0.126-0.145 0.255-0.292 0.38-0.44 -0.027-0.019-0.052-0.04-0.078-0.06C79.886 80.31 79.785 80.477 79.685 80.641zM76.597 86.345c1.013-0.099 3.187-1.322 5.577-2.767C79.578 84.609 77.287 85.598 76.597 86.345zM82.173 83.579c0.165-0.065 0.333-0.131 0.501-0.195 -0.014-0.029-0.029-0.056-0.04-0.083C82.481 83.392 82.328 83.487 82.173 83.579zM76.783 87.194c0.943 0.382 3.437 0.309 6.227 0.142C80.231 87.042 77.745 86.853 76.783 87.194zM83.01 87.336c0.158 0.019 0.32 0.036 0.48 0.053 0.001-0.027 0.002-0.055 0.003-0.083C83.332 87.316 83.168 87.326 83.01 87.336zM76.558 88.033c0.655 0.78 2.898 1.871 5.442 3.017C79.679 89.499 77.565 88.177 76.558 88.033zM82 91.049c0.117 0.08 0.236 0.161 0.354 0.238 0.013-0.021 0.024-0.042 0.035-0.063C82.262 91.168 82.129 91.109 82 91.049zM75.964 88.67c0.221 0.993 1.699 3.004 3.419 5.205C78.048 91.419 76.791 89.266 75.964 88.67zM79.384 93.872c0.059 0.106 0.117 0.217 0.176 0.325 0.018-0.013 0.034-0.023 0.053-0.034C79.536 94.065 79.458 93.967 79.384 93.872zM75.146 88.96c-0.267 0.982 0.107 3.447 0.608 6.195C75.711 92.361 75.601 89.87 75.146 88.96zM75.754 95.155c0.002 0.11 0.004 0.224 0.004 0.337 0.021-0.003 0.038-0.005 0.058-0.005C75.796 95.376 75.775 95.264 75.754 95.155zM74.285 88.834c-0.693 0.748-1.508 3.102-2.341 5.769C73.205 92.11 74.265 89.853 74.285 88.834zM71.944 94.603c-0.05 0.096-0.099 0.195-0.147 0.295 0.017 0.008 0.032 0.013 0.051 0.021C71.879 94.815 71.913 94.707 71.944 94.603zM73.584 88.324c-0.964 0.338-2.779 2.048-4.756 4.021C71.104 90.724 73.091 89.215 73.584 88.324zM68.828 92.345c-0.095 0.067-0.194 0.138-0.29 0.206 0.014 0.016 0.027 0.028 0.041 0.045C68.661 92.511 68.746 92.428 68.828 92.345zM73.197 87.546c-1.01-0.148-3.409 0.521-6.078 1.349C69.889 88.518 72.345 88.106 73.197 87.546zM67.119 88.897c-0.131 0.018-0.265 0.034-0.4 0.054 0.005 0.021 0.011 0.042 0.018 0.063C66.865 88.977 66.993 88.936 67.119 88.897zM73.217 86.677c-0.824-0.599-3.263-1.121-6.01-1.627C69.833 86 72.202 86.777 73.217 86.677zM67.207 85.05c-0.143-0.052-0.29-0.106-0.432-0.158 -0.008 0.026-0.016 0.051-0.021 0.077C66.907 84.995 67.06 85.022 67.207 85.05zM73.637 85.917c-0.45-0.911-2.363-2.506-4.561-4.23C70.959 83.747 72.693 85.538 73.637 85.917zM69.076 81.688c-0.118-0.13-0.236-0.26-0.355-0.391 -0.021 0.022-0.041 0.044-0.061 0.065C68.8 81.471 68.941 81.58 69.076 81.688zM74.363 85.44c0.024-1.017-0.93-3.321-2.073-5.868C72.999 82.273 73.704 84.663 74.363 85.44zM72.29 79.572c-0.049-0.182-0.096-0.366-0.144-0.55 -0.029 0.01-0.062 0.021-0.09 0.032C72.134 79.227 72.214 79.401 72.29 79.572z" fill="url(#SvgjsRadialGradient4878)" opacity="1"></path><path id="SvgjsPath4881" d="M78.334 87c0 1.842-1.492 3.333-3.333 3.333S71.666 88.841 71.666 87c0-1.841 1.494-3.334 3.335-3.334C76.844 83.666 78.334 85.159 78.334 87z" fill="#7b5c33" stroke-width="none" opacity="1"></path><path id="SvgjsPath4882" d="M78.334 87c0 1.842-1.492 3.333-3.333 3.333S71.666 88.841 71.666 87c0-1.841 1.494-3.334 3.335-3.334C76.844 83.666 78.334 85.159 78.334 87z" fill="#000000" stroke-width="none" opacity="0.9"></path><path id="SvgjsPath4883" d="M70.35 90.893c0.636-0.427 1.5-0.255 1.927 0.38 0.427 0.637 0.258 1.5-0.379 1.927 -0.638 0.429-1.5 0.258-1.927-0.378C69.544 92.185 69.713 91.32 70.35 90.893L70.35 90.893z" fill="url(#SvgjsLinearGradient4884)" opacity="0.5"></path><path id="SvgjsPath4887" d="M77.635 86.536c-0.356 0.53-1.373 0.468-2.275-0.136 -0.903-0.605-1.346-1.526-0.991-2.055l0.001-0.001c0.354-0.53 1.372-0.469 2.274 0.137 0.903 0.604 1.346 1.524 0.992 2.054C77.635 86.536 77.635 86.536 77.635 86.536z" fill="url(#SvgjsLinearGradient4888)" opacity="0.5"></path><path id="SvgjsPath4891" d="M81.682 85.121c-0.806 1.237-2.884 1.31-4.641 0.166 -1.756-1.145-2.527-3.075-1.722-4.311 0.806-1.235 2.884-1.31 4.641-0.166C81.715 81.956 82.485 83.887 81.682 85.121L81.682 85.121z" fill="url(#SvgjsLinearGradient4892)" opacity="0.75"></path></g></g></g><g id="svga-group-eyesfront-left"><path id="SvgjsPath4840" d="M55.5 88c0 13.807 8.06 24.999 18 24.999s18-11.192 18-24.999c0-13.808-8.06-25-18-25S55.5 74.192 55.5 88zM61.952 84.523c-0.506-2.285 5.191-3.973 12.711-3.051 7.518 0.923 12.738 5.524 12.052 7.844 -0.38 1.286-10.639 3.245-14.253 2.847C68.798 91.758 63.174 90.04 61.952 84.523z" fill="#ffd0bc" stroke-width="none" opacity="1" stroke="none"></path><path id="SvgjsPath4841" d="M72.462 92.163c3.614 0.398 13.873-1.561 14.253-2.847 0.687-2.32-4.534-6.921-12.052-7.844 -6.46-0.792-11.563 0.345-12.556 2.128 0.898-6.4 7.7-11.397 15.987-11.434 8.911-0.037 16.148 5.676 16.172 12.765 0.021 7.088-7.185 12.862-16.095 12.902 -8.913 0.037-16.149-5.676-16.173-12.764 0-0.105 0.016-0.208 0.019-0.313C63.348 90.083 68.852 91.764 72.462 92.163z" fill="url(#SvgjsRadialGradient4842)" opacity="1"></path><path id="SvgjsPath4846" d="M61.952 84.523c-0.506-2.285 5.191-3.973 12.711-3.051 7.518 0.923 12.738 5.524 12.052 7.844 -0.38 1.286-10.639 3.245-14.253 2.847C68.798 91.758 63.174 90.04 61.952 84.523z" fill="url(#SvgjsRadialGradient4847)" opacity="1"></path><path id="SvgjsPath4850" d="M62.349 79.417c4.208-1.978 9.35-2.16 13.838-1.005 2.404 0.561 4.965 1.285 7.063 2.638 1.945 1.135 3.525 2.5 5.002 4.19 -1.342-1.701-2.773-3.118-4.623-4.27 -2.276-1.416-4.769-2.294-7.364-2.916C71.678 76.928 66.542 77.184 62.349 79.417z" fill="#d17f5b" stroke-width="none" opacity="1" stroke="none"></path><path id="SvgjsPath4851" d="M57.318 80.972c0 0 2.328 0.881 3.595 0.62 -0.39-0.459-1.096-1.604-1.096-1.604s1.853 0.551 3.151 0.032c0.88-0.352 4.065-1 5.456-1.066 1.687-0.082 5.073 0.125 6.735 0.424 3.374 0.608 8.985 2.63 11.678 7.184 0.255 0.572 1.407 0.921 1.407 0.921s-1.02-0.215-1.149 0.042c-0.282 0.561 1.298 2.016 1.496 2.197 -0.161-0.145-1.289-1.135-1.722-0.967 -0.061 0.022-0.137 0.388-0.155 0.482 0.3-2.426-4.838-6.746-12.052-7.604 -7.52-0.894-13.217 0.743-12.711 2.958 1.222 5.348 6.846 7.013 10.51 7.405 2.526 0.271 8.298-0.577 11.675-1.537l1.011-0.317c-1.999 1.009-7.524 2.195-9.767 2.403 -0.744 0.07-2.24 0.104-2.986 0.085 -5.949-0.158-10.16-3.179-11.729-7.26 -0.125-0.328-0.494-0.619-0.838-0.696 -1.604-0.361-5.096-1.811-5.096-1.811 2.32 0.361 3.483 0.674 5.305 0.059C58.257 82.256 57.318 80.972 57.318 80.972z" fill="#09152e" stroke-width="none" opacity="1" stroke="none"></path></g></g><g id="svga-group-eyes-right" ><g id="svga-group-eyesback-right"><path id="SvgjsPath4825" d="M138.048 84.523c0.506-2.285-5.191-3.973-12.711-3.051 -7.518 0.923-12.738 5.524-12.052 7.844 0.38 1.286 10.639 3.245 14.253 2.847C131.202 91.758 136.826 90.04 138.048 84.523z" fill="url(#SvgjsRadialGradient4826)" opacity="1"></path></g><g id="svga-group-eyesiriswrapper-right" transform="translate(0.75 -0.5)"><g id="svga-group-eyesiriscontrol-right" ><g id="svga-group-eyesiris-right" ><path id="SvgjsPath4895" d="M133.5 87c0 4.694-3.806 8.5-8.499 8.5 -4.694 0-8.501-3.806-8.501-8.5l0 0c0-4.694 3.807-8.5 8.501-8.5C129.694 78.499 133.5 82.305 133.5 87L133.5 87z" fill="#7b5c33" stroke-width="none" opacity="1"></path><path id="SvgjsPath4896" d="M124.048 78.595c-0.033 0.004-0.066 0.008-0.101 0.012 0.041 0.191 0.081 0.384 0.12 0.575C124.06 78.987 124.055 78.789 124.048 78.595zM124.066 79.18c0.099 2.793 0.262 5.282 0.732 6.183C125.047 84.377 124.625 81.92 124.066 79.18zM124.8 85.365c-0.061 0.236-0.153 0.397-0.294 0.452 -0.142 0.053-0.319-0.008-0.521-0.146 0.058 0.236 0.052 0.422-0.051 0.537 -0.102 0.114-0.285 0.142-0.527 0.11 0.16 0.184 0.242 0.353 0.206 0.5 -0.039 0.148-0.189 0.258-0.415 0.343 0.225 0.088 0.376 0.199 0.411 0.347 0.036 0.148-0.046 0.315-0.205 0.498 0.241-0.029 0.426 0.001 0.525 0.115 0.101 0.114 0.106 0.301 0.05 0.537 0.199-0.137 0.376-0.197 0.518-0.142 0.143 0.053 0.234 0.216 0.291 0.454 0.114-0.215 0.243-0.353 0.396-0.368 0.148-0.02 0.307 0.084 0.466 0.267 0.002-0.244 0.053-0.423 0.181-0.51 0.124-0.086 0.311-0.069 0.537 0.018 -0.11-0.216-0.148-0.398-0.078-0.534 0.071-0.135 0.245-0.207 0.487-0.235 -0.199-0.14-0.321-0.283-0.318-0.436 -0.001-0.153 0.119-0.296 0.321-0.434 -0.241-0.03-0.412-0.103-0.484-0.237 -0.07-0.135-0.031-0.319 0.081-0.535 -0.229 0.085-0.413 0.102-0.538 0.016 -0.126-0.086-0.177-0.267-0.178-0.51 -0.158 0.182-0.316 0.282-0.468 0.262C125.041 85.714 124.911 85.58 124.8 85.365zM125.66 85.471c0.679-0.758 1.446-3.13 2.224-5.813C126.674 82.174 125.662 84.453 125.66 85.471zM127.883 79.657c0.085-0.172 0.172-0.348 0.253-0.524 -0.03-0.011-0.06-0.024-0.09-0.037C127.992 79.284 127.938 79.472 127.883 79.657zM126.377 85.965c0.953-0.357 2.736-2.101 4.671-4.115C128.808 83.517 126.851 85.065 126.377 85.965zM131.048 81.851c0.142-0.106 0.287-0.213 0.433-0.318 -0.021-0.025-0.043-0.047-0.06-0.07C131.297 81.59 131.174 81.722 131.048 81.851zM126.777 86.738c1.01 0.125 3.399-0.591 6.052-1.475C130.068 85.698 127.617 86.159 126.777 86.738zM132.829 85.263c0.156-0.022 0.318-0.048 0.478-0.073 -0.007-0.026-0.013-0.054-0.02-0.081C133.135 85.16 132.979 85.212 132.829 85.263zM126.775 87.606c0.836 0.583 3.284 1.057 6.038 1.505C130.171 88.214 127.786 87.484 126.775 87.606zM132.813 89.111c0.135 0.047 0.271 0.095 0.404 0.138 0.007-0.024 0.013-0.047 0.018-0.071C133.098 89.158 132.954 89.135 132.813 89.111zM126.367 88.375c0.471 0.902 2.42 2.462 4.649 4.142C129.092 90.492 127.32 88.737 126.367 88.375zM131.018 92.514c0.083 0.087 0.17 0.179 0.253 0.268 0.014-0.017 0.027-0.031 0.043-0.046C131.215 92.662 131.113 92.587 131.018 92.514zM125.652 88.867c-0.004 1.019 0.995 3.302 2.191 5.827C127.079 92.006 126.327 89.628 125.652 88.867zM127.844 94.694c0.03 0.106 0.062 0.215 0.09 0.324 0.021-0.008 0.036-0.015 0.055-0.02C127.941 94.896 127.892 94.793 127.844 94.694zM124.788 88.968c-0.476 0.902-0.653 3.386-0.768 6.178C124.594 92.413 125.031 89.958 124.788 88.968zM124.021 95.146c-0.023 0.106-0.044 0.214-0.066 0.323 0.02 0.004 0.035 0.005 0.055 0.007C124.013 95.368 124.018 95.254 124.021 95.146zM123.979 88.657c-0.844 0.576-2.154 2.697-3.553 5.114C122.204 91.617 123.733 89.645 123.979 88.657zM120.427 93.771c-0.074 0.09-0.152 0.185-0.229 0.274 0.018 0.012 0.034 0.02 0.053 0.034C120.309 93.976 120.369 93.873 120.427 93.771zM123.405 88.006c-1.015 0.119-3.16 1.385-5.522 2.875C120.46 89.801 122.726 88.768 123.405 88.006zM117.883 90.884c-0.122 0.051-0.247 0.102-0.372 0.156 0.009 0.019 0.021 0.038 0.033 0.057C117.658 91.027 117.771 90.954 117.883 90.884zM123.198 87.161c-0.951-0.365-3.441-0.238-6.227-0.016C119.755 87.383 122.244 87.521 123.198 87.161zM116.972 87.145c-0.151-0.014-0.308-0.028-0.457-0.041 -0.001 0.027-0.003 0.053-0.001 0.08C116.669 87.169 116.822 87.156 116.972 87.145zM123.407 86.318c-0.67-0.763-2.932-1.809-5.499-2.905C120.259 84.915 122.397 86.196 123.407 86.318zM117.908 83.413c-0.147-0.095-0.297-0.189-0.446-0.285 -0.013 0.026-0.026 0.053-0.041 0.078C117.585 83.276 117.75 83.344 117.908 83.413zM123.985 85.67c-0.239-0.989-1.758-2.967-3.521-5.132C121.849 82.963 123.147 85.09 123.985 85.67zM120.465 80.538c-0.095-0.163-0.188-0.329-0.281-0.494 -0.026 0.018-0.055 0.037-0.079 0.054C120.224 80.245 120.348 80.393 120.465 80.538z" fill="url(#SvgjsRadialGradient4897)" opacity="1"></path><path id="SvgjsPath4900" d="M126.255 78.622c-0.034-0.004-0.066-0.01-0.1-0.014 -0.011 0.196-0.022 0.393-0.034 0.586C126.164 79.004 126.211 78.812 126.255 78.622zM126.12 79.193c-0.627 2.724-1.114 5.17-0.892 6.162C125.724 84.467 125.95 81.984 126.12 79.193zM125.229 85.356c-0.119 0.212-0.25 0.344-0.401 0.36 -0.15 0.014-0.306-0.091-0.464-0.276 -0.006 0.243-0.06 0.421-0.188 0.505 -0.128 0.083-0.313 0.063-0.539-0.03 0.107 0.219 0.143 0.403 0.069 0.536 -0.075 0.133-0.249 0.201-0.489 0.224 0.194 0.144 0.312 0.289 0.308 0.441 -0.003 0.152-0.126 0.292-0.327 0.428 0.24 0.034 0.41 0.111 0.478 0.247 0.067 0.136 0.025 0.318-0.091 0.532 0.229-0.081 0.414-0.093 0.537-0.003 0.123 0.088 0.17 0.27 0.164 0.514 0.166-0.177 0.325-0.278 0.478-0.253 0.148 0.02 0.274 0.16 0.382 0.379 0.064-0.236 0.16-0.396 0.306-0.447 0.143-0.051 0.318 0.014 0.515 0.157 -0.051-0.237-0.041-0.423 0.063-0.536s0.29-0.136 0.532-0.102c-0.157-0.187-0.238-0.356-0.195-0.504 0.039-0.148 0.192-0.255 0.423-0.336 -0.226-0.091-0.372-0.206-0.407-0.354 -0.032-0.149 0.053-0.316 0.218-0.495 -0.243 0.023-0.427-0.009-0.524-0.125 -0.099-0.115-0.102-0.303-0.039-0.538 -0.201 0.134-0.38 0.19-0.521 0.132C125.37 85.756 125.281 85.593 125.229 85.356zM126.033 85.683c0.852-0.558 2.206-2.65 3.652-5.04C127.865 82.76 126.298 84.699 126.033 85.683zM129.685 80.641c0.126-0.145 0.255-0.292 0.38-0.44 -0.027-0.019-0.052-0.04-0.078-0.06C129.886 80.31 129.785 80.477 129.685 80.641zM126.597 86.345c1.013-0.099 3.187-1.322 5.577-2.767C129.578 84.609 127.287 85.598 126.597 86.345zM132.173 83.579c0.165-0.065 0.333-0.131 0.501-0.195 -0.014-0.029-0.029-0.056-0.04-0.083C132.481 83.392 132.328 83.487 132.173 83.579zM126.783 87.194c0.943 0.382 3.437 0.309 6.227 0.142C130.231 87.042 127.745 86.853 126.783 87.194zM133.01 87.336c0.158 0.019 0.32 0.036 0.48 0.053 0.001-0.027 0.002-0.055 0.003-0.083C133.332 87.316 133.168 87.326 133.01 87.336zM126.558 88.033c0.655 0.78 2.898 1.871 5.442 3.017C129.679 89.499 127.565 88.177 126.558 88.033zM132 91.049c0.117 0.08 0.236 0.161 0.354 0.238 0.013-0.021 0.024-0.042 0.035-0.063C132.262 91.168 132.129 91.109 132 91.049zM125.964 88.67c0.221 0.993 1.699 3.004 3.419 5.205C128.048 91.419 126.791 89.266 125.964 88.67zM129.384 93.872c0.059 0.106 0.117 0.217 0.176 0.325 0.018-0.013 0.034-0.023 0.053-0.034C129.536 94.065 129.458 93.967 129.384 93.872zM125.146 88.96c-0.267 0.982 0.107 3.447 0.608 6.195C125.711 92.361 125.601 89.87 125.146 88.96zM125.754 95.155c0.002 0.11 0.004 0.224 0.004 0.337 0.021-0.003 0.038-0.005 0.058-0.005C125.796 95.376 125.775 95.264 125.754 95.155zM124.285 88.834c-0.693 0.748-1.508 3.102-2.341 5.769C123.205 92.11 124.265 89.853 124.285 88.834zM121.944 94.603c-0.05 0.096-0.099 0.195-0.147 0.295 0.017 0.008 0.032 0.013 0.051 0.021C121.879 94.815 121.913 94.707 121.944 94.603zM123.584 88.324c-0.964 0.338-2.779 2.048-4.756 4.021C121.104 90.724 123.091 89.215 123.584 88.324zM118.828 92.345c-0.095 0.067-0.194 0.138-0.29 0.206 0.014 0.016 0.027 0.028 0.041 0.045C118.661 92.511 118.746 92.428 118.828 92.345zM123.197 87.546c-1.01-0.148-3.409 0.521-6.078 1.349C119.889 88.518 122.345 88.106 123.197 87.546zM117.119 88.897c-0.131 0.018-0.265 0.034-0.4 0.054 0.005 0.021 0.011 0.042 0.018 0.063C116.865 88.977 116.993 88.936 117.119 88.897zM123.217 86.677c-0.824-0.599-3.263-1.121-6.01-1.627C119.833 86 122.202 86.777 123.217 86.677zM117.207 85.05c-0.143-0.052-0.29-0.106-0.432-0.158 -0.008 0.026-0.016 0.051-0.021 0.077C116.907 84.995 117.06 85.022 117.207 85.05zM123.637 85.917c-0.45-0.911-2.363-2.506-4.561-4.23C120.959 83.747 122.693 85.538 123.637 85.917zM119.076 81.688c-0.118-0.13-0.236-0.26-0.355-0.391 -0.021 0.022-0.041 0.044-0.061 0.065C118.8 81.471 118.941 81.58 119.076 81.688zM124.363 85.44c0.024-1.017-0.93-3.321-2.073-5.868C122.999 82.273 123.704 84.663 124.363 85.44zM122.29 79.572c-0.049-0.182-0.096-0.366-0.144-0.55 -0.029 0.01-0.062 0.021-0.09 0.032C122.134 79.227 122.214 79.401 122.29 79.572z" fill="url(#SvgjsRadialGradient4901)" opacity="1"></path><path id="SvgjsPath4904" d="M128.334 87c0 1.842-1.492 3.333-3.333 3.333s-3.335-1.492-3.335-3.333c0-1.841 1.494-3.334 3.335-3.334C126.844 83.666 128.334 85.159 128.334 87z" fill="#7b5c33" stroke-width="none" opacity="1"></path><path id="SvgjsPath4905" d="M128.334 87c0 1.842-1.492 3.333-3.333 3.333s-3.335-1.492-3.335-3.333c0-1.841 1.494-3.334 3.335-3.334C126.844 83.666 128.334 85.159 128.334 87z" fill="#000000" stroke-width="none" opacity="0.9"></path><path id="SvgjsPath4906" d="M120.35 90.893c0.636-0.427 1.5-0.255 1.927 0.38 0.427 0.637 0.258 1.5-0.379 1.927 -0.638 0.429-1.5 0.258-1.927-0.378C119.544 92.185 119.713 91.32 120.35 90.893L120.35 90.893z" fill="url(#SvgjsLinearGradient4907)" opacity="0.5"></path><path id="SvgjsPath4910" d="M127.635 86.536c-0.356 0.53-1.373 0.468-2.275-0.136 -0.903-0.605-1.346-1.526-0.991-2.055l0.001-0.001c0.354-0.53 1.372-0.469 2.274 0.137 0.903 0.604 1.346 1.524 0.992 2.054C127.635 86.536 127.635 86.536 127.635 86.536z" fill="url(#SvgjsLinearGradient4911)" opacity="0.5"></path><path id="SvgjsPath4914" d="M131.682 85.121c-0.806 1.237-2.884 1.31-4.641 0.166 -1.756-1.145-2.527-3.075-1.722-4.311 0.806-1.235 2.884-1.31 4.641-0.166C131.715 81.956 132.485 83.887 131.682 85.121L131.682 85.121z" fill="url(#SvgjsLinearGradient4915)" opacity="0.75"></path></g></g></g><g id="svga-group-eyesfront-right"><path id="SvgjsPath4860" d="M126.5 63c-9.94 0-18 11.192-18 25 0 13.807 8.06 24.999 18 24.999s18-11.192 18-24.999C144.5 74.192 136.44 63 126.5 63zM127.538 92.163c-3.614 0.398-13.873-1.561-14.253-2.847 -0.687-2.32 4.534-6.921 12.052-7.844 7.52-0.922 13.217 0.767 12.711 3.051C136.826 90.04 131.202 91.758 127.538 92.163z" fill="#ffd0bc" stroke-width="none" opacity="1" stroke="none"></path><path id="SvgjsPath4861" d="M127.538 92.163c-3.614 0.398-13.873-1.561-14.253-2.847 -0.687-2.32 4.534-6.921 12.052-7.844 6.46-0.792 11.563 0.345 12.556 2.128 -0.898-6.4-7.7-11.397-15.987-11.434 -8.911-0.037-16.148 5.676-16.172 12.765 -0.021 7.088 7.185 12.862 16.095 12.902 8.913 0.037 16.149-5.676 16.173-12.764 0-0.105-0.016-0.208-0.019-0.313C136.652 90.083 131.148 91.764 127.538 92.163z" fill="url(#SvgjsRadialGradient4862)" opacity="1"></path><path id="SvgjsPath4866" d="M138.048 84.523c0.506-2.285-5.191-3.973-12.711-3.051 -7.518 0.923-12.738 5.524-12.052 7.844 0.38 1.286 10.639 3.245 14.253 2.847C131.202 91.758 136.826 90.04 138.048 84.523z" fill="url(#SvgjsRadialGradient4867)" opacity="1"></path><path id="SvgjsPath4870" d="M137.651 79.417c-4.208-1.978-9.35-2.16-13.838-1.005 -2.404 0.561-4.965 1.285-7.063 2.638 -1.945 1.135-3.525 2.5-5.002 4.19 1.342-1.701 2.773-3.118 4.623-4.27 2.276-1.416 4.769-2.294 7.364-2.916C128.322 76.928 133.458 77.184 137.651 79.417z" fill="#d17f5b" stroke-width="none" opacity="1" stroke="none"></path><path id="SvgjsPath4871" d="M142.682 80.972c0 0-2.328 0.881-3.595 0.62 0.39-0.459 1.096-1.604 1.096-1.604s-1.853 0.551-3.151 0.032c-0.88-0.352-4.065-1-5.456-1.066 -1.687-0.082-5.073 0.125-6.735 0.424 -3.374 0.608-8.985 2.63-11.678 7.184 -0.255 0.572-1.407 0.921-1.407 0.921s1.02-0.215 1.149 0.042c0.282 0.561-1.298 2.016-1.496 2.197 0.161-0.145 1.289-1.135 1.722-0.967 0.061 0.022 0.137 0.388 0.155 0.482 -0.3-2.426 4.838-6.746 12.052-7.604 7.52-0.894 13.217 0.743 12.711 2.958 -1.222 5.348-6.846 7.013-10.51 7.405 -2.526 0.271-8.298-0.577-11.675-1.537l-1.011-0.317c1.999 1.009 7.524 2.195 9.767 2.403 0.744 0.07 2.24 0.104 2.986 0.085 5.949-0.158 10.16-3.179 11.729-7.26 0.125-0.328 0.494-0.619 0.838-0.696 1.604-0.361 5.096-1.811 5.096-1.811 -2.32 0.361-3.483 0.674-5.305 0.059C141.743 82.256 142.682 80.972 142.682 80.972z" fill="#09152e" stroke-width="none" opacity="1" stroke="none"></path></g></g><g id="svga-group-facehighlight-single" ><path id="SvgjsPath2753" d="M140.204 113.007c0.035 22.275-17.995 40.365-40.273 40.396 -22.274 0.036-40.361-17.993-40.396-40.272C59.501 90.857 77.53 72.77 99.808 72.735 122.083 72.701 140.171 90.73 140.204 113.007z" fill="url(#SvgjsRadialGradient2754)" opacity="1"></path><path id="SvgjsPath2757" d="M135,55.999c0,19.329-15.671,35-35,35c-19.329,0-35-15.671-35-35s15.671-35,35-35C119.329,20.999,135,36.67,135,55.999z" fill="url(#SvgjsRadialGradient2758)" opacity="1"></path></g><g id="svga-group-eyebrows-left" ><path id="SvgjsPath4942" d="M56.113 70.739c32.178-9.407 39.48 9.836 32.802 3.849C81.977 68.368 65.958 68.92 56.113 70.739z" fill="#2a232b" stroke-width="none" opacity="1"></path></g><g id="svga-group-eyebrows-right" ><path id="SvgjsPath4943" d="M143.889 70.731c-9.304-1.701-22.773-2.38-30.946 2.53 -1.01 0.606-5.017 4.041-3.951 1.625C110.929 70.486 123.744 64.882 143.889 70.731z" fill="#2a232b" stroke-width="none" opacity="1"></path></g><g id="svga-group-nose-single" ><path id="SvgjsPath3851" d="M92.281 116.235c-0.745 2.063 5.028 4.289 7.218 4.426 2.374 0.147 9.024-2.899 7.896-4.991 -1.185-2.197-5.63-0.286-7.547-0.286C97.94 115.384 93.276 113.479 92.281 116.235z" fill="#f0b399" stroke-width="none" opacity="1" stroke="none"></path><path id="SvgjsPath3852" d="M102.207 117.221c-0.243-0.522 1.194-1.333 1.748-1.493 0.777-0.226 2.505 0.238 2.438 0.831 -0.06 0.521-1.603-0.169-2.105-0.022C103.767 116.687 102.435 117.712 102.207 117.221zM95.214 116.742c0.706 0 1.753 0.457 1.945 0.057 0.229-0.479-1.56-1.065-2.086-1 -0.434 0.052-1.991 0.958-1.777 1.338C93.496 117.49 94.284 116.742 95.214 116.742z" fill="#d17f5b" stroke-width="none" opacity="1" stroke="none"></path><path id="SvgjsPath3853" d="M99.857 113.479c0.669 0 1.807-0.637 1.978-1.9 0.754-5.575-0.521-20.246-1.978-20.246 -1.365 0-2.508 15.024-2.155 20.246C97.789 112.86 99.099 113.479 99.857 113.479" fill="#fff4ef" stroke-width="none" opacity="0.2" stroke="none"></path></g><g id="svga-group-hair-front" ><path id="SvgjsPath5076" d="M137.933 141.731c16.512-55.946-2.844-86.784-5.085-96.474 -0.461-1.994-2.839-7.675-2.839-7.675 -8.857-4.884-13.91-5.96-24.344-5.96 -7.02 0-10.784 0.161-17.606 2.384 -7.164 7.132-27.936 32.674-36.394 51.778 4.185 15.866 6.826 68.128 4.833 72.716 -15.408 0.498-9.962-129.099-9.962-129.099 5.36 0 103.2-4.161 108.719-4.161C155.255 25.241 161.143 139.85 137.933 141.731z" fill="#56342e" stroke-width="none" opacity="0.1"></path><path id="SvgjsPath5077" d="M129.421 235.813c7.562-15.873 5.54-26.495 3.584-36.774 -1.463-7.688-2.978-15.637-0.401-25.709 -0.845-13.438 2.629-24.662 6.307-36.547 7.017-22.68 14.97-48.384-6.036-96.463l-0.026-0.062 -0.061-0.033c-8.857-4.884-19.055-7.465-29.488-7.465 -7.02 0-14.039 1.127-20.861 3.351 -7.164 7.132-24.063 29.375-32.521 48.479 0.245 3.976 0.862 8.197 1.927 13.381 4.34 21.321 4.5 38.71 4.654 55.53 0.23 25.185 0.45 48.987 15.491 81.027 -1.855-1.622-3.654-3.18-5.397-4.688 -18.63-16.117-30.938-26.765-34.354-51.049l-0.398 0.021c0 0-0.33 9.248-0.47 13.14C21.141 141.693 19.924 101.158 25.877 60.5 30.869 26.402 62.752-6.334 88.302-6.334c5.36 0 10.53 0.952 15.365 2.83l0.073 0.028 0.072-0.029c6.084-2.401 11.969-3.619 17.488-3.619 16.125 0 29.904 7.554 39.849 27.521 11.614 23.322 17.796 59.631 16.534 97.126 -1.229 36.535-9.174 68.096-21.295 84.732 0.656-3.462 0.867-5.002 1.26-8.908l-0.388-0.089c-7.468 20.085-17.243 30.866-26.698 41.292C130.182 234.974 129.8 235.394 129.421 235.813z" fill="#56342e" stroke-width="none" opacity="1"></path><path id="SvgjsPath5078" d="M50.023 86.038c0.295 3.558 0.885 7.374 1.822 11.934 4.341 21.321 4.5 38.712 4.654 55.53 0.231 25.185 0.45 48.987 15.491 81.027 -1.855-1.623-3.654-3.18-5.397-4.688 -9.569-8.279-17.466-15.118-23.351-23.1 -9.281-17.978-12.373-31.131-12.373-60.673 4.5 24.167 5.667 36.329 23.74 60.667C36.699 171.857 29.855 120.033 50.023 86.038zM175.502 121.842C173.57 134.101 170.613 161.006 166 173c2.684-17.925 2.144-23.32 2-41 -4 23-9.352 50.397-20 68 3.834-15.765 7.255-28.928 7.255-48.595C150.202 170.072 141.482 173.074 140 187c3.888-36.515 20.87-75.267 3.842-113.642 5.986 28.08 0.275 46.59-4.933 63.424 -3.679 11.885-7.15 23.11-6.308 36.547 -2.574 10.071-1.061 18.021 0.402 25.709 1.956 10.28 3.979 20.901-3.584 36.773 0.379-0.419 0.76-0.839 1.143-1.261 9.455-10.426 19.23-21.207 26.698-41.292l0.388 0.089c-0.393 3.906-0.604 5.446-1.26 8.908C168.029 186.278 173.814 156.535 175.502 121.842zM37.27 72.427c-2.445 5.423-6.514 62.265-3.284 74.552 0.046 0.17-0.056-0.172-0.268-0.912C28.817 130.232 34.444 77.602 37.27 72.427zM28.995 149.658c0.151 1.726 0.322 2.77 0.297 2.562 -0.132-0.51-1.95-44.056-1.492-44.315 0.1-0.021 0.069 0.018 0.102 0.025C26.832 108.215 27.775 136.716 28.995 149.658zM161.813 133.315c-1.464 16.704-5.294 35.469-2.028 18.988 5.737-27.943 7.126-52.795 0.201-80.288C162.865 85.764 164.776 96.6 161.813 133.315z" fill="#47251f" stroke-width="none" opacity="1"></path><path id="SvgjsPath5079" d="M127 29c16.888 6.402 32 75 26 115 10.155-44 7.566-81.265-11-119 16.968 27.907 24.125 38.909 26.371 82.435 3.32-19.596 2.846-43.368-0.37-69.895 -2.007-6.258-4.298-12.015-6.852-17.143C151.206 0.43 137.427-7.124 121.302-7.124c-5.521 0-11.403 1.218-17.489 3.619l-0.071 0.029 -0.073-0.028c-4.835-1.878-10.005-2.83-15.365-2.83 -12.584 0-27.104 8.274-39.002 20.577C32.418 39.738 27.122 71.139 28 101c1-24 13-48 28-66 -11 26-19 53-20 81 6-39 35.469-88.265 58-96 6.9-2.369 15.467-1.286 17.615 6.42 1.188 1.846 1.794 4.125 1.385 6.58 1.407-1.126 2.791-1.964 4.165-2.536C120.504 27.823 124.108 27.904 127 29z" fill="#5e3d37" stroke-width="none" opacity="1"></path><path id="SvgjsPath5080" d="M113 33c1-6-5-11.6-10-11.6 -8.118 0-16.148 7.781-21.182 15.339 0.212-0.22 0.42-0.433 0.619-0.63 6.822-2.224 13.841-3.351 20.861-3.351 10.435 0 20.63 2.582 29.488 7.465l0.06 0.033 0.027 0.062c0.054 0.123 0.102 0.24 0.152 0.362 -0.271-3.492-4.157-7.681-6.063-9.05C121.964 28.63 117.881 28.408 113 33z" fill="#371813" stroke-width="none" opacity="1"></path><path id="SvgjsPath5081" d="M123.605 15.551c14.693 2.885 21.418 18.935 25.36 33.284C149.686 51.544 142.26 19.955 123.605 15.551zM167.8 60.71c-2.621-21.61-11.549-43.651-30.488-54.378C163.85 22.934 168.197 63.544 167.8 60.71zM91.438 18.545c1.918-0.426-12.385 1.221-23.378 15.036 -7.164 8.71-13.558 21.986-16.138 27.16C59.841 44.582 73.947 22.662 91.438 18.545zM75.803 6.583C59.858 11.72 49.913 23.31 44.498 37.629 55.194 12.346 80.312 5.185 75.803 6.583zM111.399 5.315C107.242-3.4 99.008-7.734 86.591-6.171c12.168-0.83 20.242 4.56 23.477 11.712 -6.828-7.43-19.214 1.181-18.223 0.847 0.978-0.692 13.933-4.741 18.745 0.193 2.196 4.651 3.396 10.396 3.765 16.96 0.41 8.729 0.354-4.552-0.186-8.375 -0.458-3.457-1.292-6.551-2.495-9.251 4.005-5.099 11.348-5.508 17.675-2.897l0.041-0.091C123.153-0.222 114.057-0.279 111.399 5.315z" fill="#56342e" stroke-width="none" opacity="1"></path><path id="SvgjsPath5082" d="M114.04 32.379c5.321-4.434 12.993-3.73 18.039 6.7l0.61 1.32c31.857 72.917-2.776 93.617-0.28 132.88 -6.107 23.896 10.536 35.066-3.79 63.72 9.811-10.893 20.781-22.021 28.83-43.67 -0.429 4.271-0.652 5.762-1.42 9.75 38.854-51.466 30.84-240.344-52.29-206.77 -26.87-12.574-69.464 14.093-78.06 64.16 -7.504 43.708-3.863 86.184 5.83 133.16 0.025-0.661 0.53-14.811 0.53-14.811 3.785 26.906 18.251 36.949 40.54 56.49 -25.454-53.516-9.508-83.19-20.54-137.379 -0.9-4.38-1.64-8.8-1.94-13.26 8.343-18.843 25.079-41.048 32.4-48.37l1.21-1.21c0.099-0.095 5.39-5.147 5.63-5.37 8.201-3.25 17.274-4.018 22.341 3.593 -3.037-7.992-13.058-8.04-20.73-5.043 8.445-7.445 18.682-10.292 22.191 4.081 0.103 0.419 0.082 1.196 0.082 1.196S113.665 32.692 114.04 32.379zM175.077 118.061c-0.38 12.364-2.541 54.771-17.658 82.27 1.066-4.51 1.76-8.328 2.021-12.801 4.745-14.82 5.854-26.1 6.028-27.1 -5.55 27.37-15.529 51.351-34.619 73.569 13.535-29.831-2.641-35.97 1.67-59.33 0.967 11.022 4.291 21.701 7.739 32.05 0.49-9.871 2.533-21.996 7.271-30.71 -1.799 2.479-7.063 14.054-7.93 26.21 -14.464-50.55 5.344-49.98 8.17-108.66 2.604 21.148-0.119 28.44-0.119 28.44 5.72-19.17 0.543-32.426-0.826-43.12 -1.693-13.216-10.355-34.177-11.654-36.99 -4.865-10.169-12.197-16.503-21.13-10.39 -8.374-24.158-29.294-0.563-35.459 6.21 -8.888 9.765-22.52 28.087-29.211 44.29 0 0.01-0.01 0.02-0.01 0.03 -4.833 11.717-6.102 20.844-7.32 28.84 2.306-11.387 4.596-18.222 7.43-24.77 0.18 3.31 0.57 6.61 1.08 9.87 8.997 57.645-6.818 82.899 20.06 136.78 -34.449-32.043-38.365-41.664-39.7-80.58 -0.238 24.988 0.937 10.513-0.14 30.7 -5.768-39.082-10.682-67.553-2.5-118.52 9.267-57.727 52.276-77.212 75.43-67.42 30.296-12.349 48.97 5.949 61.2 35.04 2.775 6.604 10.469 37.291 5.6 62.41 0 0 2.195-6.328 3.66-18.7C175.565 89.307 175.505 104.127 175.077 118.061z" fill="#280e09" stroke-width="none" opacity="1"></path></g><g id="svga-group-glasses-single" ><path id="SvgjsPath4982" d="M124.34 99.99c-0.82 0-1.66-0.03-2.49-0.1 -3.5-0.26-15.01-2.23-16.05-16.5 -0.26-3.57 7.6-6.09 23.34-7.49 0.79-0.07 1.61-0.15 2.46-0.23 3.85-0.36 8.21-0.77 11.65-0.77 4.5 0 6.58 0.68 6.73 2.22 0.36 3.45-1.67 10.82-8.72 17C136.96 97.91 130.95 99.99 124.34 99.99z" fill="url(#SvgjsLinearGradient4983)" opacity="1"></path><path id="SvgjsPath4986" d="M75.66 99.99c0.82 0 1.66-0.03 2.49-0.1 3.5-0.26 15.01-2.23 16.05-16.5 0.26-3.57-7.6-6.09-23.34-7.49 -0.79-0.07-1.61-0.15-2.46-0.23 -3.85-0.36-8.21-0.77-11.65-0.77 -4.5 0-6.58 0.68-6.73 2.22 -0.36 3.45 1.67 10.82 8.72 17C63.04 97.91 69.05 99.99 75.66 99.99z" fill="url(#SvgjsLinearGradient4987)" opacity="1"></path><path id="SvgjsPath4990" d="M147.99 73.03c-5.98 0.68-19.67 1.5-27.04 2.16 -4.68 0.41-12.81 2.65-20.95 2.65 -8.14 0-16.27-2.23-20.95-2.65 -7.37-0.65-21.06-1.48-27.04-2.16 -2.7-0.31-6.42 0.95-5.97 3.51 0.34 1.91 3.15 10.2 11.86 18.2 5.94 5.45 15.9 8.17 26.2 5.12 9.68-2.87 11.7-11.13 12.66-13.23 0.85-1.85 1.76-2.67 3.24-2.67s2.4 0.82 3.24 2.67c0.96 2.09 2.98 10.36 12.66 13.23 10.3 3.05 20.26 0.33 26.2-5.12 8.71-8 11.52-16.29 11.86-18.2C154.41 73.98 150.69 72.72 147.99 73.03zM78.11 99.4c-7.54 0.57-14.31-1.48-19.05-5.64 -6.87-6.03-8.9-13.22-8.56-16.58 0.3-2.93 12.22-1.5 20.3-0.78 8.08 0.72 23.21 2.55 22.89 6.96C92.83 95.34 84.45 98.92 78.11 99.4zM140.94 93.76c-4.74 4.16-11.51 6.21-19.05 5.64 -6.34-0.48-14.72-4.05-15.59-16.04 -0.32-4.41 14.81-6.24 22.89-6.96 8.08-0.72 20-2.15 20.3 0.78C149.84 80.53 147.81 87.73 140.94 93.76z" fill="#da6972" stroke-width="none" opacity="1" stroke="none"></path><path id="SvgjsPath4991" d="M73.61 99.42c-16.31-0.67-21.96-14.11-23.63-18 -1.6-3.73-0.3-5.07 1.95-5.88 -0.89 0.62-1.62 1.23-1.64 2.61C50.1 84.21 58.21 98.57 73.61 99.42zM93.58 87.22c0.94-2.29 1.76-3.96 1.3-5.25 -0.74-2.1-5.84-2.97-7.71-3.36C93.62 80.48 95.43 81.06 93.58 87.22zM82.14 77.14c-4.22-1.31-16.69-2.69-20.76-2.42C65.7 75.13 77.56 76.01 82.14 77.14zM126.39 99.42c16.31-0.67 21.96-14.11 23.63-18 1.6-3.73 0.3-5.07-1.94-5.88 0.89 0.62 1.62 1.23 1.64 2.61C149.9 84.21 141.79 98.57 126.39 99.42zM112.83 78.6c-1.87 0.39-6.97 1.26-7.71 3.36 -0.45 1.29 0.37 2.96 1.3 5.25C104.57 81.06 106.38 80.48 112.83 78.6zM138.62 74.73c-4.07-0.27-16.54 1.11-20.76 2.42C122.44 76.01 134.3 75.13 138.62 74.73z" fill="#e9888f" stroke-width="none" opacity="1" stroke="none"></path></g></g></g><rect id="SvgjsRect1033" width="200" height="15" x="0" y="185" fill="#ecf0f1" opacity="0.5" style="display:none;"></rect><text id="SvgjsText1034" font-family="&quot;Roboto&quot;, &quot;Helvetica Neue&quot;, Helvetica, Arial, sans-serif" style="font-size:0.84em;font-family:&quot;Roboto&quot;, &quot;Helvetica Neue&quot;, Helvetica, Arial, sans-serif;text-anchor:middle;font-weight:400;display:none;" font-size="0.84em" text-anchor="middle" font-weight="400" fill="#000000" x="100" y="185"><tspan id="SvgjsTspan1035" dy="1.2em" x="100" style="font-size:0.84em;font-family:&quot;Roboto&quot;, &quot;Helvetica Neue&quot;, Helvetica, Arial, sans-serif;text-anchor:middle;font-weight:400;">www.creartuavatar.com</tspan></text></g><defs id="SvgjsDefs1001"><radialGradient id="SvgjsRadialGradient2754" cx="100" cy="113" r="40" gradientUnits="userSpaceOnUse" class="svga-on-canvas-facehighlight-gradient-single-0"><stop id="SvgjsStop2755" stop-opacity="0.5" stop-color="#ffe2d6" offset="0" ></stop><stop id="SvgjsStop2756" stop-opacity="0" stop-color="#ffd0bc" offset="0.9" ></stop></radialGradient><radialGradient id="SvgjsRadialGradient2758" cx="100" cy="57" r="36" gradientUnits="userSpaceOnUse" class="svga-on-canvas-facehighlight-gradient-single-1"><stop id="SvgjsStop2759" stop-opacity="0.5" stop-color="#ffe2d6" offset="0" ></stop><stop id="SvgjsStop2760" stop-opacity="0" stop-color="#ffd0bc" offset="0.9" ></stop></radialGradient><radialGradient id="SvgjsRadialGradient3222" cx="100" cy="100" r="150" gradientUnits="userSpaceOnUse" class="svga-on-canvas-backs-gradient-single-1"><stop id="SvgjsStop3223" stop-opacity="0" stop-color="#ecf0f1" offset="0" ></stop><stop id="SvgjsStop3224" stop-opacity="1" stop-color="#c6dce2" offset="0.2" ></stop><stop id="SvgjsStop3225" stop-opacity="0" stop-color="#c6dce2" offset="1" ></stop></radialGradient><radialGradient id="SvgjsRadialGradient4819" cx="129.05" cy="85.956" r="15.117" gradientTransform="matrix(-0.9945 0.1042 0.1042 0.9945 192.8274 -12.4637)" gradientUnits="userSpaceOnUse" class="svga-on-canvas-eyesback-gradient-left-0"><stop id="SvgjsStop4820" stop-opacity="1" stop-color="#ffffff" offset="0" ></stop><stop id="SvgjsStop4821" stop-opacity="1" stop-color="#fcfdfd" offset="0.316" ></stop><stop id="SvgjsStop4822" stop-opacity="1" stop-color="#f4f7f8" offset="0.505" ></stop><stop id="SvgjsStop4823" stop-opacity="1" stop-color="#e5ecef" offset="0.661" ></stop><stop id="SvgjsStop4824" stop-opacity="1" stop-color="#d8e2e7" offset="0.76" ></stop></radialGradient><radialGradient id="SvgjsRadialGradient4826" cx="129.049" cy="85.956" r="15.117" gradientTransform="matrix(0.9945 0.1042 -0.1042 0.9945 7.1735 -12.4637)" gradientUnits="userSpaceOnUse" class="svga-on-canvas-eyesback-gradient-right-0"><stop id="SvgjsStop4827" stop-opacity="1" stop-color="#ffffff" offset="0" ></stop><stop id="SvgjsStop4828" stop-opacity="1" stop-color="#fcfdfd" offset="0.316" ></stop><stop id="SvgjsStop4829" stop-opacity="1" stop-color="#f4f7f8" offset="0.505" ></stop><stop id="SvgjsStop4830" stop-opacity="1" stop-color="#e5ecef" offset="0.661" ></stop><stop id="SvgjsStop4831" stop-opacity="1" stop-color="#d8e2e7" offset="0.76" ></stop></radialGradient><radialGradient id="SvgjsRadialGradient4833" cx="129.05" cy="85.956" r="15.117" gradientTransform="matrix(-0.9945 0.1042 0.1042 0.9945 192.8274 -12.4637)" gradientUnits="userSpaceOnUse" class="svga-on-canvas-eyesfront-gradient-left-0"><stop id="SvgjsStop4834" stop-opacity="1" stop-color="#ffffff" offset="0" ></stop><stop id="SvgjsStop4835" stop-opacity="1" stop-color="#fcfdfd" offset="0.316" ></stop><stop id="SvgjsStop4836" stop-opacity="1" stop-color="#f4f7f8" offset="0.505" ></stop><stop id="SvgjsStop4837" stop-opacity="1" stop-color="#e5ecef" offset="0.661" ></stop><stop id="SvgjsStop4838" stop-opacity="1" stop-color="#d8e2e7" offset="0.76" ></stop></radialGradient><radialGradient id="SvgjsRadialGradient4842" cx="121.786" cy="84.496" fx="133.039" fy="84.527" r="16.003" gradientTransform="matrix(0.9998 0.0208 0.0166 -0.7998 -44.9524 149.5433)" gradientUnits="userSpaceOnUse" class="svga-on-canvas-eyesfront-gradient-left-3"><stop id="SvgjsStop4843" stop-opacity="1" stop-color="#f0b399" offset="0" ></stop><stop id="SvgjsStop4844" stop-opacity="0.3" stop-color="#f0b399" offset="0.7" ></stop><stop id="SvgjsStop4845" stop-opacity="0" stop-color="#ffd0bc" offset="1" ></stop></radialGradient><radialGradient id="SvgjsRadialGradient4847" cx="69.124" cy="107.529" r="29.525" gradientTransform="matrix(1.0336 0 0 1.0336 -1.6792 1.7282)" gradientUnits="userSpaceOnUse" class="svga-on-canvas-eyesfront-gradient-left-4"><stop id="SvgjsStop4848" stop-opacity="0" stop-color="#000000" offset="0.95" ></stop><stop id="SvgjsStop4849" stop-opacity="0.3" stop-color="#000000" offset="1" ></stop></radialGradient><radialGradient id="SvgjsRadialGradient4853" cx="129.049" cy="85.956" r="15.117" gradientTransform="matrix(0.9945 0.1042 -0.1042 0.9945 7.1735 -12.4637)" gradientUnits="userSpaceOnUse" class="svga-on-canvas-eyesfront-gradient-right-0"><stop id="SvgjsStop4854" stop-opacity="1" stop-color="#ffffff" offset="0" ></stop><stop id="SvgjsStop4855" stop-opacity="1" stop-color="#fcfdfd" offset="0.316" ></stop><stop id="SvgjsStop4856" stop-opacity="1" stop-color="#f4f7f8" offset="0.505" ></stop><stop id="SvgjsStop4857" stop-opacity="1" stop-color="#e5ecef" offset="0.661" ></stop><stop id="SvgjsStop4858" stop-opacity="1" stop-color="#d8e2e7" offset="0.76" ></stop></radialGradient><radialGradient id="SvgjsRadialGradient4862" cx="121.786" cy="84.496" fx="133.039" fy="84.527" r="16.003" gradientTransform="matrix(-0.9998 0.0208 -0.0166 -0.7998 244.9525 149.5433)" gradientUnits="userSpaceOnUse" class="svga-on-canvas-eyesfront-gradient-right-3"><stop id="SvgjsStop4863" stop-opacity="1" stop-color="#f0b399" offset="0" ></stop><stop id="SvgjsStop4864" stop-opacity="0.3" stop-color="#f0b399" offset="0.7" ></stop><stop id="SvgjsStop4865" stop-opacity="0" stop-color="#ffd0bc" offset="1" ></stop></radialGradient><radialGradient id="SvgjsRadialGradient4867" cx="69.124" cy="107.529" r="29.525" gradientTransform="matrix(-1.0336 0 0 1.0336 201.6792 1.7282)" gradientUnits="userSpaceOnUse" class="svga-on-canvas-eyesfront-gradient-right-4"><stop id="SvgjsStop4868" stop-opacity="0" stop-color="#000000" offset="0.95" ></stop><stop id="SvgjsStop4869" stop-opacity="0.3" stop-color="#000000" offset="1" ></stop></radialGradient><radialGradient id="SvgjsRadialGradient4874" cx="-558.588" cy="-490.918" r="84.646" gradientTransform="matrix(0.096 -0.0248 0.0245 0.0961 140.5478 120.3577)" gradientUnits="userSpaceOnUse" class="svga-on-canvas-eyesiris-gradient-left-1"><stop id="SvgjsStop4875" stop-opacity="0.8" stop-color="#ffffff" offset="0" ></stop><stop id="SvgjsStop4876" stop-opacity="0" stop-color="#ffffff" offset="1" ></stop></radialGradient><radialGradient id="SvgjsRadialGradient4878" cx="-565.337" cy="-492.691" r="84.644" gradientTransform="matrix(0.0991 8.856325e-004 -0.0011 0.0991 130.3774 136.3533)" gradientUnits="userSpaceOnUse" class="svga-on-canvas-eyesiris-gradient-left-2"><stop id="SvgjsStop4879" stop-opacity="0.8" stop-color="#ffffff" offset="0" ></stop><stop id="SvgjsStop4880" stop-opacity="0" stop-color="#ffffff" offset="1" ></stop></radialGradient><linearGradient id="SvgjsLinearGradient4884" x1="122.283" y1="93.047" x2="123.61" y2="91.466" gradientTransform="matrix(1 0 0 1 -52 0)" gradientUnits="userSpaceOnUse" class="svga-on-canvas-eyesiris-gradient-left-5"><stop id="SvgjsStop4885" stop-opacity="1" stop-color="#ffffff" offset="0" ></stop><stop id="SvgjsStop4886" stop-opacity="0" stop-color="#ffffff" offset="1" ></stop></linearGradient><linearGradient id="SvgjsLinearGradient4888" x1="127" y1="85" x2="125" y2="87" gradientTransform="matrix(1 0 0 1 -50 0)" gradientUnits="userSpaceOnUse" class="svga-on-canvas-eyesiris-gradient-left-6"><stop id="SvgjsStop4889" stop-opacity="1" stop-color="#ffffff" offset="0" ></stop><stop id="SvgjsStop4890" stop-opacity="0" stop-color="#ffffff" offset="1" ></stop></linearGradient><linearGradient id="SvgjsLinearGradient4892" x1="130" y1="81" x2="126" y2="85" gradientTransform="matrix(1 0 0 1 -50 0)" gradientUnits="userSpaceOnUse" class="svga-on-canvas-eyesiris-gradient-left-7"><stop id="SvgjsStop4893" stop-opacity="1" stop-color="#ffffff" offset="0" ></stop><stop id="SvgjsStop4894" stop-opacity="0" stop-color="#ffffff" offset="1" ></stop></linearGradient><radialGradient id="SvgjsRadialGradient4897" cx="-578.76" cy="-490.73" r="84.646" gradientTransform="matrix(0.096 -0.0248 0.0245 0.0961 192.4794 119.8404)" gradientUnits="userSpaceOnUse" class="svga-on-canvas-eyesiris-gradient-right-1"><stop id="SvgjsStop4898" stop-opacity="0.8" stop-color="#ffffff" offset="0" ></stop><stop id="SvgjsStop4899" stop-opacity="0" stop-color="#ffffff" offset="1" ></stop></radialGradient><radialGradient id="SvgjsRadialGradient4901" cx="-584.778" cy="-487.329" r="84.644" gradientTransform="matrix(0.0991 8.856325e-004 -0.0011 0.0991 182.3104 135.839)" gradientUnits="userSpaceOnUse" class="svga-on-canvas-eyesiris-gradient-right-2"><stop id="SvgjsStop4902" stop-opacity="0.8" stop-color="#ffffff" offset="0" ></stop><stop id="SvgjsStop4903" stop-opacity="0" stop-color="#ffffff" offset="1" ></stop></radialGradient><linearGradient id="SvgjsLinearGradient4907" x1="120.284" y1="93.047" x2="121.611" y2="91.467" gradientUnits="userSpaceOnUse" class="svga-on-canvas-eyesiris-gradient-right-5"><stop id="SvgjsStop4908" stop-opacity="1" stop-color="#ffffff" offset="0" ></stop><stop id="SvgjsStop4909" stop-opacity="0" stop-color="#ffffff" offset="1" ></stop></linearGradient><linearGradient id="SvgjsLinearGradient4911" x1="127" y1="85" x2="125" y2="87" gradientUnits="userSpaceOnUse" class="svga-on-canvas-eyesiris-gradient-right-6"><stop id="SvgjsStop4912" stop-opacity="1" stop-color="#ffffff" offset="0" ></stop><stop id="SvgjsStop4913" stop-opacity="0" stop-color="#ffffff" offset="1" ></stop></linearGradient><linearGradient id="SvgjsLinearGradient4915" x1="130" y1="81" x2="126" y2="85" gradientUnits="userSpaceOnUse" class="svga-on-canvas-eyesiris-gradient-right-7"><stop id="SvgjsStop4916" stop-opacity="1" stop-color="#ffffff" offset="0" ></stop><stop id="SvgjsStop4917" stop-opacity="0" stop-color="#ffffff" offset="1" ></stop></linearGradient><linearGradient id="SvgjsLinearGradient4970" x1="72" y1="106" x2="72" y2="69" gradientUnits="userSpaceOnUse" class="svga-on-canvas-glasses-gradient-single-2"><stop id="SvgjsStop4971" stop-opacity="0.95" stop-color="#da6972" offset="0" ></stop><stop id="SvgjsStop4972" stop-opacity="1" stop-color="#da6972" offset="1" ></stop></linearGradient><linearGradient id="SvgjsLinearGradient4983" x1="130" y1="77" x2="130" y2="98" gradientUnits="userSpaceOnUse" class="svga-on-canvas-glasses-gradient-single-0"><stop id="SvgjsStop4984" stop-opacity="1" stop-color="#26120b" offset="0" ></stop><stop id="SvgjsStop4985" stop-opacity="0.5" stop-color="#26120b" offset="1" ></stop></linearGradient><linearGradient id="SvgjsLinearGradient4987" x1="130" y1="77" x2="130" y2="98" gradientTransform="matrix(-1 0 0 1 200 0)" gradientUnits="userSpaceOnUse" class="svga-on-canvas-glasses-gradient-single-1"><stop id="SvgjsStop4988" stop-opacity="1" stop-color="#26120b" offset="0" ></stop><stop id="SvgjsStop4989" stop-opacity="0.5" stop-color="#26120b" offset="1" ></stop></linearGradient><linearGradient id="SvgjsLinearGradient5084" x1="100" y1="141" x2="100" y2="138" gradientUnits="userSpaceOnUse" class="svga-on-canvas-mouth-gradient-single-0"><stop id="SvgjsStop5085" stop-opacity="1" stop-color="#f7c1aa" offset="0.1" ></stop><stop id="SvgjsStop5086" stop-opacity="1" stop-color="#f0b399" offset="1" ></stop></linearGradient><linearGradient id="SvgjsLinearGradient5095" x1="99.98" y1="171.27" x2="99.98" y2="136.351" gradientUnits="userSpaceOnUse" class="svga-on-canvas-chinshadow-gradient-single-0"><stop id="SvgjsStop5096" stop-opacity="0.8" stop-color="#f0b399" offset="0" ></stop><stop id="SvgjsStop5097" stop-opacity="1" stop-color="#d17f5b" offset="0.7" ></stop></linearGradient></defs></svg>